<mxfile host="app.diagrams.net" modified="2024-01-15T10:24:15.977Z" agent="Mozilla/5.0 (Windows NT 10.0; Win64; x64) AppleWebKit/537.36 (KHTML, like Gecko) Chrome/120.0.0.0 Safari/537.36" version="22.1.18" etag="DJqGVeK4IMgukVxLMnQ3" type="github">
  <diagram name="Seite-1" id="ngtpYPsM7H3ddIzZbOtG">
    <mxGraphModel>
      <root>
        <mxCell id="0" />
        <mxCell id="1" parent="0" />
      </root>
    </mxGraphModel>
  </diagram>
</mxfile>
